<?xml version="1.0" standalone="no"?>
<!DOCTYPE svg PUBLIC "-//W3C//DTD SVG 20010904//EN"
 "http://www.w3.org/TR/2001/REC-SVG-20010904/DTD/svg10.dtd">
<svg version="1.0" xmlns="http://www.w3.org/2000/svg"
 width="225.000000pt" height="225.000000pt" viewBox="0 0 225.000000 225.000000"
 preserveAspectRatio="xMidYMid meet">

<g transform="translate(0.000000,225.000000) scale(0.100000,-0.100000)"
fill="#000000" stroke="none">
<path d="M983 2240 c-265 -37 -485 -150 -669 -342 -262 -274 -366 -645 -284
-1019 44 -205 136 -373 290 -532 219 -229 485 -341 805 -341 320 0 586 112
805 341 95 98 139 158 196 270 84 165 118 314 118 513 -1 306 -98 548 -309
769 -160 168 -357 278 -588 327 -88 18 -280 26 -364 14z m842 -625 l0 -120
-700 0 -700 0 -3 109 c-1 61 0 116 2 123 5 11 132 13 703 11 l698 -3 0 -120z
m0 -490 l0 -120 -700 0 -700 0 -3 109 c-1 61 0 116 2 123 5 11 132 13 703 11
l698 -3 0 -120z m0 -490 l0 -120 -700 0 -700 0 -3 109 c-1 61 0 116 2 123 5
11 132 13 703 11 l698 -3 0 -120z"/>
</g>
</svg>
