<?xml version="1.0" standalone="no"?>
<!DOCTYPE svg PUBLIC "-//W3C//DTD SVG 20010904//EN"
 "http://www.w3.org/TR/2001/REC-SVG-20010904/DTD/svg10.dtd">
<svg version="1.0" xmlns="http://www.w3.org/2000/svg"
 width="251.000000pt" height="201.000000pt" viewBox="0 0 251.000000 201.000000"
 preserveAspectRatio="xMidYMid meet">
<metadata>
Created by potrace 1.16, written by Peter Selinger 2001-2019
</metadata>
<g transform="translate(0.000000,201.000000) scale(0.100000,-0.100000)"
fill="#000000" stroke="none">
<path d="M964 1498 c-34 -23 -57 -50 -77 -88 -26 -50 -29 -62 -25 -135 6 -100
51 -215 109 -278 l40 -42 247 -3 c143 -2 264 1 287 7 34 8 25 9 -58 8 -53 -1
-97 2 -97 6 0 4 -6 7 -12 6 -7 -1 -22 -1 -33 0 -16 1 -13 5 12 16 45 19 121
92 144 138 12 22 20 59 21 87 0 105 -66 171 -178 178 -40 3 -64 0 -64 -6 0
-28 14 -42 41 -42 43 0 92 -24 118 -56 19 -24 22 -38 18 -76 -11 -124 -159
-208 -342 -194 -94 7 -98 11 -154 126 -62 128 -47 240 39 297 39 27 97 30 139
8 47 -24 97 -91 115 -153 15 -55 15 -58 -5 -85 -19 -26 -20 -33 -9 -78 16 -64
33 -64 24 1 -5 34 -3 50 5 50 6 0 11 -10 11 -22 0 -34 11 -68 22 -68 5 0 6 19
2 45 -4 28 -2 45 4 45 11 0 22 -33 22 -68 0 -13 4 -20 10 -17 6 3 10 26 10 50
0 33 -6 50 -24 67 -16 15 -26 39 -30 72 -9 74 -63 165 -120 204 -41 27 -57 32
-106 32 -49 0 -65 -5 -106 -32z"/>
<path d="M1163 1365 c-25 -11 -39 -11 -62 -2 -26 9 -35 7 -78 -19 -52 -32 -64
-61 -37 -89 14 -13 27 -15 63 -10 57 9 78 19 86 44 3 11 25 27 50 37 48 18 52
23 33 42 -15 15 -15 15 -55 -3z"/>
<path d="M1025 825 c-50 -49 -22 -145 45 -160 38 -8 94 18 109 51 18 41 13 74
-18 105 -39 39 -100 41 -136 4z"/>
<path d="M1297 839 c-25 -15 -46 -68 -40 -101 8 -42 48 -73 95 -73 33 0 45 6
70 34 25 28 29 39 24 70 -10 66 -91 104 -149 70z"/>
<path d="M1520 760 l0 -90 48 0 c55 0 86 18 99 57 23 68 -24 123 -107 123
l-40 0 0 -90z"/>
</g>
</svg>
